<?xml version="1.0" encoding="UTF-8" standalone="no"?>
<!-- Created with Inkscape (http://www.inkscape.org/) -->

<svg
   width="70.893723mm"
   height="70.858002mm"
   viewBox="0 0 70.893723 70.858002"
   version="1.1"
   id="svg1024"
   inkscape:version="1.1.2 (b8e25be833, 2022-02-05)"
   sodipodi:docname="icon.svg"
   xmlns:inkscape="http://www.inkscape.org/namespaces/inkscape"
   xmlns:sodipodi="http://sodipodi.sourceforge.net/DTD/sodipodi-0.dtd"
   xmlns="http://www.w3.org/2000/svg"
   xmlns:svg="http://www.w3.org/2000/svg">
  <sodipodi:namedview
     id="namedview1026"
     pagecolor="#505050"
     bordercolor="#eeeeee"
     borderopacity="1"
     inkscape:pageshadow="0"
     inkscape:pageopacity="0"
     inkscape:pagecheckerboard="0"
     inkscape:document-units="mm"
     showgrid="false"
     inkscape:zoom="0.77771465"
     inkscape:cx="-19.930189"
     inkscape:cy="258.44955"
     inkscape:window-width="2560"
     inkscape:window-height="1377"
     inkscape:window-x="-8"
     inkscape:window-y="-8"
     inkscape:window-maximized="1"
     inkscape:current-layer="layer1" />
  <defs
     id="defs1021" />
  <g
     inkscape:label="Layer 1"
     inkscape:groupmode="layer"
     id="layer1"
     transform="translate(-59.810869,-91.808111)">
    <path
       d="m 81.238319,162.29796 c -9.78709,-0.72324 -11.69717,-1.23796 -15.41772,-4.15478 -1.41309,-1.10782 -3.34436,-3.92315 -4.07833,-5.94521 -2.52328,-6.95158 -2.59312,-42.40762 -0.0978,-49.64522 1.84576,-5.353526 6.44198,-8.919124 12.49244,-9.691232 13.46447,-1.718219 39.865021,-1.254022 45.938161,0.807724 3.74326,1.270782 7.49803,5.025553 8.76881,8.768808 2.05816,6.06258 2.53164,33.37093 0.7989,46.07662 -0.59929,4.39441 -2.69454,8.04971 -5.9428,10.36761 -3.21523,2.29434 -5.97089,2.89512 -16.26792,3.54666 -5.81697,0.36807 -20.42912,0.295 -26.193751,-0.13098 z"
       style="fill:#c80ef3;fill-opacity:1;stroke-width:0.0700042"
       id="path1019"
       sodipodi:nodetypes="ssssssssssss" />
    <text
       xml:space="preserve"
       style="font-style:normal;font-weight:normal;font-size:61.5252px;line-height:1.25;font-family:sans-serif;fill:#ffffff;fill-opacity:1;stroke:none;stroke-width:1.53813"
       x="71.554909"
       y="148.80698"
       id="text2057"><tspan
         sodipodi:role="line"
         id="tspan2055"
         style="font-style:normal;font-variant:normal;font-weight:normal;font-stretch:normal;font-family:'Enter Sansman';-inkscape-font-specification:'Enter Sansman';fill:#ffffff;fill-opacity:1;stroke-width:1.53813"
         x="71.554909"
         y="148.80698">P</tspan></text>
  </g>
</svg>
