<?xml version="1.0" encoding="UTF-8" standalone="no"?>
<!-- Created with Inkscape (http://www.inkscape.org/) -->

<svg
   width="70.893723mm"
   height="70.858002mm"
   viewBox="0 0 70.893723 70.858002"
   version="1.1"
   id="svg1024"
   inkscape:version="1.2.2 (732a01da63, 2022-12-09)"
   sodipodi:docname="icon.svg"
   xmlns:inkscape="http://www.inkscape.org/namespaces/inkscape"
   xmlns:sodipodi="http://sodipodi.sourceforge.net/DTD/sodipodi-0.dtd"
   xmlns="http://www.w3.org/2000/svg"
   xmlns:svg="http://www.w3.org/2000/svg">
  <sodipodi:namedview
     id="namedview1026"
     pagecolor="#505050"
     bordercolor="#eeeeee"
     borderopacity="1"
     inkscape:pageshadow="0"
     inkscape:pageopacity="0"
     inkscape:pagecheckerboard="0"
     inkscape:document-units="mm"
     showgrid="false"
     inkscape:zoom="3.1108586"
     inkscape:cx="76.988392"
     inkscape:cy="125.04586"
     inkscape:window-width="2560"
     inkscape:window-height="1377"
     inkscape:window-x="-8"
     inkscape:window-y="-8"
     inkscape:window-maximized="1"
     inkscape:current-layer="text2057"
     inkscape:showpageshadow="2"
     inkscape:deskcolor="#505050" />
  <defs
     id="defs1021" />
  <g
     inkscape:label="Layer 1"
     inkscape:groupmode="layer"
     id="layer1"
     transform="translate(-59.810869,-91.808111)">
    <path
       d="m 81.238319,162.29796 c -9.78709,-0.72324 -11.69717,-1.23796 -15.41772,-4.15478 -1.41309,-1.10782 -3.34436,-3.92315 -4.07833,-5.94521 -2.52328,-6.95158 -2.59312,-42.40762 -0.0978,-49.64522 1.84576,-5.353526 6.44198,-8.919124 12.49244,-9.691232 13.46447,-1.718219 39.865021,-1.254022 45.938161,0.807724 3.74326,1.270782 7.49803,5.025553 8.76881,8.768808 2.05816,6.06258 2.53164,33.37093 0.7989,46.07662 -0.59929,4.39441 -2.69454,8.04971 -5.9428,10.36761 -3.21523,2.29434 -5.97089,2.89512 -16.26792,3.54666 -5.81697,0.36807 -20.42912,0.295 -26.193751,-0.13098 z"
       style="fill:#c80ef3;fill-opacity:1;stroke-width:0.0700042"
       id="path1019"
       sodipodi:nodetypes="ssssssssssss" />
    <g
       aria-label="P"
       id="text2057"
       style="font-size:61.5252px;line-height:1.25;fill:#ffffff;stroke-width:1.53813">
      <path
         d="m 74.919568,105.7874 h 31.844102 q 0.84116,0 1.74241,0.12017 0.90125,0.12017 1.74241,0.3605 0.84117,0.30041 1.62225,0.78108 0.84116,0.42058 1.50208,1.02141 0.48066,0.54075 0.90125,1.20167 0.42058,0.60083 0.72099,1.38191 0.30042,0.78108 0.42059,1.74242 0.18025,0.90124 0.18025,1.98274 v 10.69481 q 0,1.02142 -0.18025,1.92266 -0.12017,0.90125 -0.42059,1.62225 -0.24033,0.721 -0.66091,1.38191 -0.42058,0.60084 -0.90125,1.0815 -0.54075,0.54075 -1.20166,0.96133 -0.60083,0.3605 -1.32183,0.66092 -0.90125,0.3605 -1.86258,0.54075 -0.96133,0.12016 -1.92267,0.12016 H 89.880286 v 15.32122 H 74.919568 Z m 14.960718,7.08982 v 13.39856 H 98.7726 q 0.360499,0 0.660915,-0.24034 0.360499,-0.24033 0.600835,-0.60083 0.24033,-0.3605 0.3605,-0.78108 0.12016,-0.42058 0.12016,-0.78108 v -8.89232 q 0,-0.48066 -0.18025,-0.84116 -0.12016,-0.42058 -0.360496,-0.66092 -0.240333,-0.30041 -0.600832,-0.42058 -0.300416,-0.18025 -0.600832,-0.18025 z"
         style="font-family:'Enter Sansman';-inkscape-font-specification:'Enter Sansman'"
         id="path290" />
    </g>
  </g>
</svg>
